<svg width="118" height="79" viewBox="0 0 118 79" fill="none" xmlns="http://www.w3.org/2000/svg">
<g clip-path="url(#clip0_212_8835)">
<path d="M28.5905 29.9058C28.5905 39.8469 36.6493 47.9058 46.5905 47.9058L73.5905 47.9058C76.3519 47.9058 78.5905 45.6672 78.5905 42.9058L78.5905 8.90582C78.5905 3.38298 74.1133 -1.09418 68.5905 -1.09418L33.5905 -1.09417C30.829 -1.09417 28.5905 1.1444 28.5905 3.90583L28.5905 29.9058Z" fill="#FFF1DA"/>
<path d="M75.2143 45.8443C73.8541 46.1731 72.527 46.7574 71.3154 47.5604C68.1592 49.603 66.3083 52.4635 67.1815 53.949C68.0548 55.4345 71.3213 54.982 74.4775 52.9394C75.7051 52.1635 76.7982 51.1818 77.6896 50.0549C78.1034 49.5108 78.1827 48.8419 77.892 48.3492L76.7575 46.4194C76.4689 45.925 75.8633 45.6997 75.2143 45.8443Z" fill="#D5D6DB"/>
<path d="M67.3163 18.852C66.33 19.0906 65.3676 19.5144 64.489 20.0968C62.2009 21.5775 60.8581 23.6517 61.4908 24.7279C62.1234 25.8041 64.4929 25.4758 66.7807 23.9952C67.6708 23.4323 68.4634 22.7201 69.1098 21.9029C69.4095 21.5086 69.4668 21.024 69.2562 20.6667L68.4347 19.2694C68.2258 18.911 67.7869 18.7473 67.3163 18.852Z" fill="#D5D6DB"/>
<path d="M54.5061 20.2104C54.2871 20.1907 54.0529 20.2534 53.8491 20.3856L48.4734 23.8665C48.0238 24.1568 47.8401 24.7017 48.0636 25.0837C48.1147 25.1712 48.185 25.2455 48.2707 25.302L61.3689 34.0102L79.2941 22.4032L54.5061 20.2104Z" fill="#029BC5"/>
<path d="M110.84 18.283L62.2388 49.0697L33.5422 60.7995L18.9324 63.938L17.3514 61.302L98.3541 10.9399C100.768 9.43281 103.451 8.48303 106.131 8.18696C107.305 8.06345 108.463 8.0778 109.578 8.22915C110.567 8.35572 111.503 8.61986 112.36 9.01374C113.316 9.46031 115.143 9.47646 115.726 10.3934C115.728 10.3918 117.087 14.6286 110.84 18.283V18.283Z" fill="#E1E6E9"/>
<path d="M63.0411 45.4462L41.8123 78.718C41.5467 79.1847 41.6974 79.698 42.1485 79.8645C42.4254 79.9667 42.7658 79.917 43.053 79.7326L48.4122 76.2961C49.443 75.6348 50.3579 74.8031 51.1003 73.8524L92.1227 26.0463L63.0411 45.4462Z" fill="#029BC5"/>
<path d="M10.0203 44.2665C9.67074 44.155 9.253 44.2253 8.89888 44.455L4.45266 47.339C3.84683 47.7317 3.60037 48.4675 3.90198 48.9827C3.95945 49.0807 4.03446 49.1664 4.12466 49.2364L16.4279 58.8143L29.5241 50.4771L10.0203 44.2665Z" fill="#029BC5"/>
<path d="M20.6827 60.7377L13.96 70.0186C13.8615 70.152 13.883 70.3165 14.0079 70.3857C14.098 70.4357 14.2218 70.4238 14.3228 70.3555L18.4617 67.7066C18.4939 67.686 18.523 67.6605 18.5472 67.6315L28.3547 55.8319L20.6827 60.7377Z" fill="#029BC5"/>
<path d="M108.708 8.73811C107.557 8.57921 106.361 8.565 105.149 8.69526C103.955 10.3477 103.185 12.1921 102.916 14.0446C102.894 14.416 103.195 14.6768 103.587 14.6271C103.71 14.6115 103.831 14.5666 103.941 14.4966L111.581 9.56234C110.697 9.14832 109.729 8.87083 108.708 8.73811Z" fill="#029BC5"/>
<path d="M92.1174 17.7736L97.133 14.5343L101.711 22.301L96.6955 25.5403L92.1174 17.7736Z" fill="#D5D6DB"/>
<path d="M89.0018 20.8054C88.3978 21.1967 88.151 21.9284 88.4511 22.4397L88.9373 23.2679C89.2575 23.7655 89.9983 23.8378 90.5922 23.4293C91.1573 23.0402 91.3898 22.3508 91.1238 21.8514L90.6377 21.0231C90.3379 20.5123 89.6057 20.4147 89.0018 20.8054V20.8054Z" fill="#3A556A"/>
<path d="M84.5374 23.5779C83.9334 23.9691 83.6867 24.7009 83.9868 25.2121L84.4729 26.0404C84.7931 26.538 85.534 26.6103 86.1278 26.2017C86.693 25.8127 86.9255 25.1232 86.6595 24.6239L86.1733 23.7956C85.8733 23.285 85.1411 23.1874 84.5374 23.5779V23.5779Z" fill="#3A556A"/>
<path d="M80.0715 26.3512C79.4682 26.743 79.2223 27.4738 79.5222 27.9846L80.0083 28.8129C80.3285 29.3104 81.0694 29.3827 81.6632 28.9742C82.2284 28.5852 82.4609 27.8957 82.1949 27.3964L81.7087 26.5681C81.4087 26.0569 80.6758 25.9598 80.0715 26.3512V26.3512Z" fill="#3A556A"/>
<path d="M75.6072 29.1236C75.0038 29.5154 74.758 30.2463 75.0578 30.7571L75.5439 31.5853C75.8642 32.0829 76.605 32.1552 77.1989 31.7467C77.764 31.3576 77.9965 30.6681 77.7305 30.1688L77.2444 29.3405C76.9441 28.8294 76.2112 28.7323 75.6072 29.1236V29.1236Z" fill="#3A556A"/>
<path d="M71.1433 31.8964C70.5396 32.2883 70.2935 33.0196 70.5936 33.5307L71.08 34.3594C71.3799 34.8703 72.1125 34.9673 72.7164 34.5762C73.3202 34.185 73.5666 33.4538 73.2668 32.9429L72.7803 32.1142C72.4812 31.6028 71.7488 31.505 71.1446 31.8955C71.1441 31.8959 71.1438 31.896 71.1433 31.8964Z" fill="#3A556A"/>
<path d="M66.6789 34.6688C66.0752 35.0608 65.8292 35.7921 66.1292 36.3032L66.6157 37.1319C66.9156 37.6427 67.6482 37.7398 68.252 37.3486C68.8559 36.9575 69.1023 36.2262 68.8024 35.7154L68.3159 34.8867C68.0168 34.3753 67.2844 34.2775 66.6802 34.668C66.6797 34.6683 66.6792 34.6687 66.6789 34.6688Z" fill="#3A556A"/>
<path d="M62.2143 37.4414C61.6106 37.8333 61.3646 38.5646 61.6646 39.0757L62.151 39.9043C62.4517 40.4147 63.1847 40.5106 63.7879 40.119C64.3901 39.728 64.636 38.9983 64.3375 38.488L63.851 37.6594C63.5513 37.1481 62.8187 37.0505 62.2143 37.4414Z" fill="#3A556A"/>
<path d="M57.7497 40.2139C57.146 40.6058 56.9 41.3371 57.2 41.8482L57.6864 42.6769C57.9871 43.1873 58.7201 43.2832 59.3233 42.8916C59.9255 42.5006 60.1714 41.7709 59.8729 41.2606L59.3864 40.4319C59.0867 39.9206 58.3541 39.823 57.7497 40.2139Z" fill="#3A556A"/>
<path d="M53.2855 42.9863C52.6818 43.3782 52.4357 44.1095 52.7358 44.6206L53.2222 45.4493C53.5229 45.9596 54.2558 46.0555 54.8591 45.6639C55.4612 45.2729 55.7071 44.5432 55.4086 44.033L54.9222 43.2043C54.6222 42.6932 53.8896 42.5956 53.2855 42.9863Z" fill="#3A556A"/>
<path d="M48.8197 45.7595C48.2158 46.1507 47.9694 46.8819 48.2693 47.3928L48.2699 47.3939L48.7564 48.2226C49.057 48.7329 49.79 48.8288 50.3932 48.4372C50.9954 48.0462 51.2413 47.3165 50.9428 46.8062L50.4564 45.9775C50.1566 45.4663 49.424 45.3686 48.8197 45.7595Z" fill="#3A556A"/>
<path d="M44.3564 48.5312C43.7526 48.9224 43.5062 49.6536 43.8061 50.1644L43.8067 50.1655L44.2931 50.9942C44.5938 51.5045 45.3268 51.6004 45.93 51.2088C46.5322 50.8178 46.7781 50.0882 46.4796 49.5779L45.9932 48.7492C45.6931 48.2381 44.9605 48.1405 44.3564 48.5312Z" fill="#3A556A"/>
</g>
<defs>
<clipPath id="clip0_212_8835">
<rect width="118" height="79" fill="white"/>
</clipPath>
</defs>
</svg>
