<svg width="1390" height="873" viewBox="0 0 1390 873" fill="none" xmlns="http://www.w3.org/2000/svg">
<path d="M22.3069 371C-18.0931 302.2 5.4736 162.333 22.3069 101L701.807 0L766.307 271.5L727.807 872.5C649.14 873.5 473.707 866 401.307 828C310.807 780.5 351.807 704 276.807 664C201.807 624 244.807 518.5 218.807 478.5C192.807 438.5 72.8069 457 22.3069 371Z" fill="#FFF1DA"/>
<path d="M1367 371C1407.4 302.2 1383.83 162.333 1367 101L687.5 0L623 271.5L661.5 872.5C740.167 873.5 915.6 866 988 828C1078.5 780.5 1037.5 704 1112.5 664C1187.5 624 1144.5 518.5 1170.5 478.5C1196.5 438.5 1316.5 457 1367 371Z" fill="#FFF1DA"/>
</svg>
